<?xml version="1.0" encoding="UTF-8" standalone="no"?>
<svg
   width="20px"
   height="20px"
   viewBox="0 0 20 20"
   version="1.1"
   id="svg1"
   sodipodi:docname="icon_svg.svg"
   inkscape:version="1.4 (e7c3feb100, 2024-10-09)"
   xmlns:inkscape="http://www.inkscape.org/namespaces/inkscape"
   xmlns:sodipodi="http://sodipodi.sourceforge.net/DTD/sodipodi-0.dtd"
   xmlns="http://www.w3.org/2000/svg"
   xmlns:svg="http://www.w3.org/2000/svg">
  <path
     d="M 5.519831,6.9326618 V 7.8155555 Q 5.0044361,7.5690624 4.5473033,7.4480566 4.0901705,7.3270509 3.6644096,7.3270509 q -0.7394796,0 -1.1428321,0.2868284 -0.3988707,0.2868284 -0.3988707,0.8156684 0,0.4436877 0.2644199,0.6722541 0.2689017,0.2240847 1.0128629,0.3630172 l 0.5467667,0.1120424 q 1.0128629,0.1927128 1.4924042,0.6812176 0.4840229,0.484023 0.4840229,1.299691 0,0.972528 -0.6543273,1.474478 -0.6498457,0.501949 -1.9092017,0.501949 -0.4750596,0 -1.0128629,-0.10756 Q 1.8134699,13.319076 1.239813,13.108436 v -0.932192 q 0.5512484,0.309237 1.0800883,0.466096 0.5288399,0.156859 1.0397531,0.156859 0.7753331,0 1.1966123,-0.304755 0.4212793,-0.304755 0.4212793,-0.869448 0,-0.492987 -0.3047552,-0.770852 Q 4.3725172,10.576279 3.6823363,10.437347 L 3.131088,10.329786 Q 2.1182251,10.12811 1.665574,9.6978671 1.2129228,9.2676245 1.2129228,8.5012548 q 0,-0.8873755 0.6229555,-1.3982886 0.6274372,-0.5109132 1.7254523,-0.5109132 0.4705779,0 0.9590826,0.085152 0.4885046,0.085152 0.9994178,0.2554566 z M 9.0603693,13.404228 6.5058036,6.7130588 H 7.4514411 L 9.5712825,12.346548 11.695606,6.7130588 h 0.941155 L 10.086677,13.404228 Z M 18.176135,12.449627 V 10.652468 H 16.697176 V 9.9085067 h 2.375298 v 2.8727663 q -0.524358,0.37198 -1.156277,0.564693 -0.631919,0.188231 -1.34899,0.188231 -1.568593,0 -2.455968,-0.914265 -0.882894,-0.918748 -0.882894,-2.554566 0,-1.6403 0.882894,-2.5545657 0.887375,-0.9187473 2.455968,-0.9187473 0.654327,0 1.241429,0.161341 0.591584,0.161341 1.089052,0.4750596 v 0.9635643 q -0.50195,-0.425761 -1.066643,-0.6408823 -0.564694,-0.2151213 -1.187649,-0.2151213 -1.227984,0 -1.846458,0.6856992 -0.613992,0.6856992 -0.613992,2.0436525 0,1.353472 0.613992,2.039171 0.618474,0.685699 1.846458,0.685699 0.479541,0 0.856003,-0.08067 0.376463,-0.08515 0.676736,-0.259939 z"
     id="text2"
     style="font-size:9.17851px;line-height:1.25"
     aria-label="SVG" />
  <sodipodi:namedview
     id="namedview1"
     pagecolor="#ffffff"
     bordercolor="#000000"
     borderopacity="0.25"
     inkscape:showpageshadow="2"
     inkscape:pageopacity="0.0"
     inkscape:pagecheckerboard="0"
     inkscape:deskcolor="#d1d1d1"
     inkscape:zoom="42.3"
     inkscape:cx="10"
     inkscape:cy="10.01182"
     inkscape:window-width="1920"
     inkscape:window-height="1052"
     inkscape:window-x="0"
     inkscape:window-y="28"
     inkscape:window-maximized="0"
     inkscape:current-layer="svg1" />
  <defs
     id="defs1" />
</svg>
